HIERARCHY
ROOT pelvis
{
  OFFSET 0 100 0
  CHANNELS 6 Xposition Yposition Zposition Zrotation Xrotation Yrotation
  JOINT pelvis_right_femur
  {
    OFFSET -10.78128 -3.44521 -0.5502486
    CHANNELS 3 Zrotation Xrotation Yrotation
    JOINT right_femur_tibia
    {
      OFFSET -0.8047443 -44.0398 -0.1307829
      CHANNELS 3 Zrotation Xrotation Yrotation
      JOINT right_tibia_foot
      {
        OFFSET 3.006224 -47.83518 -5
        CHANNELS 3 Zrotation Xrotation Yrotation
        End Site
        {
          OFFSET 0 -5 15
        }
      }
    }
  }
  JOINT pelvis_left_femur
  {
    OFFSET 10.78128 -3.44521 -0.5502486
    CHANNELS 3 Zrotation Xrotation Yrotation
    JOINT left_femur_tibia
    {
      OFFSET 0.8047443 -44.0398 -0.1307829
      CHANNELS 3 Zrotation Xrotation Yrotation
      JOINT left_tibia_foot
      {
        OFFSET -4.370144 -48.10324 -4.275266
        CHANNELS 3 Zrotation Xrotation Yrotation
        End Site
        {
          OFFSET 0 -5 15
        }
      }
    }
  }
  JOINT pelvis_spine1
  {
    OFFSET 0 6.468898 -3.129235
    CHANNELS 3 Zrotation Xrotation Yrotation
    JOINT spine1
    {
      OFFSET 0 23.15396 4.99043
      CHANNELS 3 Zrotation Xrotation Yrotation
      JOINT spine2
      {
        OFFSET 0 20.79997 -5.064912
        CHANNELS 3 Zrotation Xrotation Yrotation
        JOINT neck
        {
          OFFSET 0 14.38658 9.616178
          CHANNELS 3 Zrotation Xrotation Yrotation
          End Site
          {
            OFFSET 0 20 0
          }
        }
      }
      JOINT right_manubrium
      {
        OFFSET -5.722621 16.35077 3.967754
        CHANNELS 3 Zrotation Xrotation Yrotation
        JOINT right_clavicle
        {
          OFFSET -13.16364 1.694482 -4.693211
          CHANNELS 3 Zrotation Xrotation Yrotation
          JOINT right_humerus
          {
            OFFSET -28.5034 -0.3100689 -2.792744
            CHANNELS 3 Zrotation Xrotation Yrotation
            JOINT right_radius
            {
              OFFSET -25.15693 0.02248979 -1.271978
              CHANNELS 3 Zrotation Xrotation Yrotation
              End Site
              {
                OFFSET -15 0 0
              }
            }
          }
        }
      }
      JOINT left_manubrium
      {
        OFFSET 5.722621 16.35077 3.967754
        CHANNELS 3 Zrotation Xrotation Yrotation
        JOINT left_clavicle
        {
          OFFSET 13.16364 1.694482 -4.693211
          CHANNELS 3 Zrotation Xrotation Yrotation
          JOINT left_humerus
          {
            OFFSET 29.39168 -1.063119 -2.237045
            CHANNELS 3 Zrotation Xrotation Yrotation
            JOINT left_radius
            {
              OFFSET 24.59957 -0.9528479 0.9047498
              CHANNELS 3 Zrotation Xrotation Yrotation
              End Site
              {
                OFFSET 15 -0 -0
              }
            }
          }
        }
      }
    }
  }
}
MOTION
Frames: 9
Frame Time: 0.0416666666667
0 103.5113 0 1.542272 -0.8089267 -0.02345123 2.409804 -15.48669 10.5556 -0 42.09676 -0 -6.429994 -16.66602 -3.01385 -7.817556 9.244061 -23.83134 -0 3.711129 -0 14.94525 -12.95157 29.83942 -4.632387 -3.995205 4.998769 2.587656 10.2527 -7.355278 1.620525 22.10218 6.584683 2.480496 -24.94884 10.4044 6.578368 -20.3494 11.62914 85.35395 38.95303 -16.64808 -0 0 16.6636 -7.427291 8.786252 5.167261 4.996959 -18.76569 -1.113454 -91.15236 20.27541 19.38029 0 0 -13.59367 15.71209 14.13372 -4.647279
0.3915614 103.9843 1.43258 1.236785 -0.2115652 -0.05295768 3.153527 -17.6969 10.26147 -0 40.27687 -0 -6.007091 -16.36706 -2.832796 -7.642197 9.584311 -23.40482 -0 3.860954 -0 14.49581 -13.5689 29.28807 -4.284198 -3.755498 5.012308 2.608674 10.09592 -7.442177 1.594404 21.81365 6.646397 2.63287 -25.01028 10.32257 6.602248 -20.2271 11.55842 85.26384 39.03287 -16.92472 -0 0 16.76126 -7.058703 8.711841 4.720942 5.454198 -18.94831 -1.113886 -91.0908 20.23193 19.32962 0 0 -14.61237 15.94084 13.91956 -4.826248
0.7010648 104.5448 2.732111 0.666677 0.1655103 -0.02811259 4.035862 -18.26594 11.17354 -0 40.5593 -0 -4.721663 -19.057 -4.014203 -7.224054 10.83324 -24.68092 -0 4.134851 -0 11.4895 -15.63534 28.80918 -3.821793 -3.716921 4.835006 2.730962 8.971105 -7.378986 1.932778 22.06413 6.559314 2.246217 -25.46225 10.88279 6.443533 -19.87413 11.17077 85.22738 37.78264 -17.62705 -0 0 16.85147 -5.412445 8.690407 3.995333 5.06106 -17.95516 -0.694884 -93.53426 25.87611 21.90622 0 0 -14.68204 10.198 16.31631 2.57558
0.9910656 105.1342 4.096173 0.4078628 0.5276092 0.03193558 4.539139 -19.21959 11.29155 -0 40.09278 -0 -4.239171 -19.50921 -4.210824 -7.056688 11.27649 -24.88335 -0 4.509258 -0 10.28416 -16.4188 28.32766 -3.549755 -3.586827 4.807569 2.721831 8.561407 -7.358582 2.016421 22.00851 6.59552 2.279482 -25.53715 10.98534 6.486658 -19.67183 11.01223 85.11964 37.69482 -17.8747 -0 0 16.97236 -4.841337 8.681058 3.568955 5.134062 -17.71818 -0.5862517 -94.29802 27.41842 22.70847 0 0 -15.08074 8.591493 16.77982 4.670366
1.25598 105.7171 5.599275 0.01262839 0.8378912 0.1374244 5.075191 -20.51586 10.96284 -0 38.9077 -0 -4.068119 -18.95531 -4.305124 -6.7144 11.7354 -24.7178 -0 4.938122 -0 8.271144 -17.65151 27.15169 -3.140982 -3.332451 4.622018 2.723821 8.201563 -7.403076 2.012958 21.97745 6.71316 2.435599 -25.67969 10.91546 6.418398 -19.48739 10.91194 85.18827 37.01374 -18.43692 -0 0 16.82588 -4.754098 8.594976 3.449368 5.212832 -17.7591 -0.7062496 -95.38147 29.49722 23.84995 0 0 -15.71098 5.996775 17.36357 7.997858
1.512981 106.2515 7.288255 -0.3183933 1.170697 0.2781352 5.537354 -22.04923 10.48992 -0 37.22002 -0 -4.186386 -17.7505 -4.12927 -6.434605 11.94748 -24.15853 -0 5.25681 -0 7.135748 -18.41819 26.10498 -2.812763 -3.083566 4.47139 2.764803 8.137081 -7.503122 1.951758 21.84693 6.809683 2.606454 -25.86677 10.76995 6.325066 -19.41271 10.90876 85.3266 36.50346 -18.89051 -0 0 16.57494 -4.969905 8.522386 3.52702 5.399325 -18.07671 -0.8746427 -95.71498 30.11965 24.23786 0 0 -16.34189 5.093804 17.45125 9.249853
1.76229 106.6943 9.242645 -0.7074141 1.557231 0.4616557 6.044273 -24.07191 9.785342 -0 34.69436 -0 -4.520304 -15.87746 -3.804958 -6.088589 12.14169 -23.22104 -0 5.656272 -0 6.007795 -19.22658 24.76986 -2.441573 -2.76234 4.270361 2.84264 8.186525 -7.656483 1.857574 21.66813 6.90555 2.806795 -26.11603 10.54878 6.146955 -19.34378 10.94347 85.58347 35.79811 -19.4549 -0 0 16.1182 -5.443845 8.436678 3.771402 5.657809 -18.62621 -1.126571 -95.76349 30.35223 24.32694 0 0 -17.14433 4.598144 17.40038 10.0408
2.006303 106.9978 11.5382 -1.069754 1.966811 0.6899223 6.51751 -26.41667 8.916917 -0 31.3878 -0 -5.000385 -13.58895 -3.3228 -5.757622 12.31701 -21.95315 -0 6.1718 -0 5.314854 -19.88247 23.42169 -2.112403 -2.415123 4.072409 2.95406 8.371478 -7.82301 1.772124 21.45588 6.948531 2.973303 -26.36513 10.30826 5.878094 -19.24961 11.00321 85.93844 35.02321 -20.00771 -0 0 15.42751 -6.101025 8.384507 4.132112 5.996553 -19.3479 -1.398972 -95.2506 29.81612 23.79652 0 0 -18.05851 5.111528 17.16324 9.614599
2.238328 107.0678 14.30379 -1.357226 2.250846 0.9644599 6.786639 -29.04649 7.542075 -0 26.69869 -0 -5.760431 -10.53489 -2.636442 -5.419538 12.56792 -20.12086 -0 6.905378 -0 4.852267 -20.53813 21.82684 -1.855794 -1.99639 3.809466 3.089043 8.719888 -7.994749 1.683287 21.28829 6.927156 3.111145 -26.48804 9.964874 5.394 -19.0502 11.09705 86.52777 33.83351 -20.66134 -0 0 14.20996 -7.246882 8.358582 4.776332 6.41878 -20.37632 -1.812868 -94.04387 28.59373 22.40819 0 0 -19.29546 6.42355 16.75315 8.175096
